<?xml version="1.0" encoding="UTF-8"?>
<svg width="512" height="512" viewBox="0 0 512 512" fill="none" xmlns="http://www.w3.org/2000/svg">
  <rect width="512" height="512" rx="128" fill="#4F46E5"/>
  <path d="M384 384C397.255 384 408 373.255 408 360C408 346.745 397.255 336 384 336C370.745 336 360 346.745 360 360C360 373.255 370.745 384 384 384Z" fill="white"/>
  <path d="M304 384C317.255 384 328 373.255 328 360C328 346.745 317.255 336 304 336C290.745 336 280 346.745 280 360C280 373.255 290.745 384 304 384Z" fill="white"/>
  <path d="M384 304H317.52C310.8 304 304.8 300 303.2 293.6L280 200H360C366.4 200 371.6 195.6 372.8 189.6L384 136C385.2 130.4 381.2 124.8 375.6 123.6C374.8 123.2 373.6 123.2 372.8 123.6L278.4 144H176V136C176 131.6 172.4 128 168 128H136C131.6 128 128 131.6 128 136V144H120C115.6 144 112 147.6 112 152C112 156.4 115.6 160 120 160H128V360C128 382.1 145.9 400 168 400H384C388.4 400 392 396.4 392 392C392 387.6 388.4 384 384 384H168C161.6 384 156.4 379.6 155.2 373.6L151.2 352H360C366.4 352 371.6 347.6 372.8 341.6L384 304ZM360 176H274.4L266.4 216H354.4L360 176Z" fill="white"/>
</svg>
