<svg width="32" height="32" viewBox="0 0 32 32" fill="none" xmlns="http://www.w3.org/2000/svg">
  <rect width="32" height="32" rx="8" fill="#4F46E5"/>
  <path d="M24 24C24.5304 24 25.0391 23.7893 25.4142 23.4142C25.7893 23.0391 26 22.5304 26 22C26 21.4696 25.7893 20.9609 25.4142 20.5858C25.0391 20.2107 24.5304 20 24 20C23.4696 20 22.9609 20.2107 22.5858 20.5858C22.2107 20.9609 22 21.4696 22 22C22 22.5304 22.2107 23.0391 22.5858 23.4142C22.9609 23.7893 23.4696 24 24 24Z" fill="white"/>
  <path d="M19 24C19.2652 24 19.5196 23.8946 19.7071 23.7071C19.8946 23.5196 20 23.2652 20 23C20 22.7348 19.8946 22.4804 19.7071 22.2929C19.5196 22.1054 19.2652 22 19 22C18.7348 22 18.4804 22.1054 18.2929 22.2929C18.1054 22.4804 18 22.7348 18 23C18 23.2652 18.1054 23.5196 18.2929 23.7071C18.4804 23.8946 18.7348 24 19 24Z" fill="white"/>
  <path d="M24 16H19.94C19.8 16 19.66 15.95 19.55 15.85L17.45 13.85C17.1837 13.6243 16.8674 13.4749 16.53 13.42C16.36 13.39 16.18 13.39 16 13.44L13.11 14.13L12.04 12.14C11.99 12.05 11.91 11.98 11.82 11.94L10.12 11.25C9.95 11.18 9.75 11.19 9.6 11.29C9.45 11.39 9.37 11.56 9.38 11.74L9.69 14.74C9.7 14.91 9.8 15.06 9.95 15.14C10.1 15.22 10.28 15.22 10.43 15.15L11.4 14.7L14.5 19.68C14.54 19.75 14.6 19.8 14.68 19.83C14.7 19.84 14.72 19.84 14.74 19.85C14.82 19.87 14.91 19.87 14.99 19.86L18.9 19.16L21.22 21.14C21.32 21.24 21.45 21.29 21.58 21.29C21.6 21.29 21.63 21.29 21.65 21.28L23.65 20.88C23.8 20.85 23.92 20.75 23.98 20.61C24.04 20.47 24.03 20.31 23.95 20.18L22.95 18.48C23.3 18.14 23.59 17.73 23.8 17.28C24.09 16.65 24.25 15.95 24.25 15.23C24.24 14.76 24.16 14.3 24.02 13.85C23.8 13.13 23.4 12.47 22.85 11.93C22.3 11.39 21.63 11 20.89 10.8C20.14 10.59 19.36 10.59 18.61 10.8C17.87 11 17.2 11.39 16.65 11.93C16.1 12.47 15.7 13.13 15.48 13.85C15.34 14.3 15.26 14.76 15.25 15.23C15.25 15.48 15.27 15.73 15.3 15.98L13.5 16.28L11.5 12.5L10.5 12.75V15.61L12.4 19.51C12.46 19.65 12.58 19.76 12.73 19.8C12.74 19.8 12.75 19.8 12.76 19.8C12.83 19.8 12.9 19.78 12.96 19.75L16.57 18.16L15.96 16.28C16.34 16.03 16.68 15.72 16.97 15.36L18.2 16.59C18.67 17.06 19.3 17.33 19.96 17.34H24V16Z" fill="white"/>
</svg>
